# xmcd
#
# Track frame offsets: 
#        150
#        14445
#        29685
#        40516
#        57743
#        73143
#        93590
#        105916
#        119791
#        133339
#        150569
#
# Disc length: 2210 seconds
#
# Revision: 0
# Processed by: cddbd v1.5.2PL0 Copyright (c) Steve Scherf et al.
# Submitted via: ExactAudioCopy v1.3
#
DISCID=9e08a00b
DTITLE=The Steve and Ben Somers Country Band - The Highway Is My Home
DYEAR=2016
DGENRE=Country
TTITLE0=San Antonio Rose
TTITLE1=Wabash Blues
TTITLE2=C'est Le Moment
TTITLE3=The Kentucky Waltz
TTITLE4=The Highway is my Home
TTITLE5=Elvira
TTITLE6=Seven Nights to Rock
TTITLE7=Loretta
TTITLE8=Jambalaya
TTITLE9=Midnight Flyer
TTITLE10=Take me back to Tulsa
EXTD=
EXTT0=
EXTT1=
EXTT2=
EXTT3=
EXTT4=
EXTT5=
EXTT6=
EXTT7=
EXTT8=
EXTT9=
EXTT10=
PLAYORDER=
